<?xml version="1.0" standalone="no"?>
<!DOCTYPE svg PUBLIC "-//W3C//DTD SVG 20010904//EN"
 "http://www.w3.org/TR/2001/REC-SVG-20010904/DTD/svg10.dtd">
<svg version="1.0" xmlns="http://www.w3.org/2000/svg"
 width="500.000000pt" height="500.000000pt" viewBox="0 0 500.000000 500.000000"
 preserveAspectRatio="xMidYMid meet">

<g transform="translate(0.000000,500.000000) scale(0.100000,-0.100000)"
fill="#000000" stroke="none">
<path d="M2270 3945 c0 -78 2 -85 20 -85 16 0 20 7 20 35 0 32 2 35 30 35 19
0 33 7 40 19 25 48 -1 81 -66 81 l-44 0 0 -85z m77 39 c3 -9 0 -20 -8 -25 -23
-14 -29 -11 -29 16 0 28 27 35 37 9z"/>
<path d="M2456 4008 c-18 -26 -7 -54 30 -70 28 -13 33 -48 6 -48 -10 0 -24 6
-30 12 -10 10 -15 10 -22 -2 -26 -40 79 -57 105 -16 20 30 12 50 -31 75 -42
25 -45 45 -4 39 27 -4 47 12 33 26 -16 15 -73 5 -87 -16z"/>
<path d="M2600 3945 l0 -85 41 0 c31 0 47 6 70 29 31 31 36 59 17 94 -18 35
-40 46 -85 47 l-43 0 0 -85z m82 38 c24 -21 23 -48 -2 -73 -32 -32 -40 -24
-40 35 0 59 10 68 42 38z"/>
<path d="M3070 3520 c-28 -28 -33 -59 -28 -172 5 -97 7 -103 56 -198 59 -114
74 -182 70 -319 -2 -75 -6 -96 -20 -104 -12 -8 -21 -7 -32 2 -13 11 -16 39
-16 167 l0 154 -31 0 -30 0 3 -166 c3 -160 4 -166 27 -185 23 -19 83 -25 116
-13 33 13 45 59 45 178 0 145 -11 196 -61 281 -54 93 -70 155 -67 255 2 64 7
85 20 93 12 8 21 7 32 -2 13 -11 16 -36 16 -132 l0 -119 30 0 30 0 0 115 c0
159 -14 185 -101 185 -25 0 -46 -7 -59 -20z"/>
<path d="M1790 3110 l0 -420 30 0 30 0 0 204 0 203 47 6 c71 8 73 14 73 218 0
211 1 209 -112 209 l-68 0 0 -420z m118 208 c1 -93 -1 -168 -5 -168 -5 0 -18
-3 -30 -6 l-23 -6 0 176 0 177 28 -3 27 -3 3 -167z"/>
<path d="M2156 3458 c-4 -40 -13 -201 -21 -358 -8 -157 -17 -313 -20 -347 l-6
-63 30 0 29 0 7 88 c9 120 8 117 30 117 14 0 21 -7 22 -25 1 -14 5 -60 8 -102
l7 -78 29 0 29 0 -5 53 c-3 28 -12 183 -20 342 -8 160 -18 325 -21 368 l-6 77
-43 0 -43 0 -6 -72z m68 -360 l7 -158 -27 0 -27 0 7 118 c3 64 9 182 13 262
l7 145 7 -105 c3 -58 9 -176 13 -262z"/>
<path d="M2460 3110 l0 -420 25 0 25 0 0 211 0 210 33 -3 32 -3 3 -207 2 -208
30 0 30 0 0 204 c0 170 -2 206 -15 216 -14 12 -14 15 0 30 12 13 15 48 15 183
0 205 -1 207 -110 207 l-70 0 0 -420z m118 213 c2 -156 2 -162 -19 -173 -45
-25 -49 -12 -49 163 0 90 3 167 7 171 4 4 19 6 33 4 l25 -3 3 -162z"/>
<path d="M2820 3110 l0 -420 30 0 30 0 0 420 0 420 -30 0 -30 0 0 -420z"/>
<path d="M615 2418 c-27 -32 -27 -33 -23 -164 4 -118 7 -137 30 -181 14 -26
43 -81 64 -122 l39 -75 0 -164 c0 -143 -2 -166 -17 -175 -12 -8 -21 -7 -32 2
-14 11 -16 41 -16 187 l0 174 -35 0 -35 0 0 -164 c0 -89 5 -177 10 -193 25
-72 151 -79 186 -11 13 26 15 59 12 197 -3 186 8 145 -100 353 -32 61 -33 65
-33 188 l0 125 30 0 30 0 3 -137 3 -138 34 0 35 0 0 134 c0 130 -1 135 -26
165 -23 27 -32 31 -79 31 -48 0 -56 -3 -80 -32z"/>
<path d="M1006 2368 c-9 -117 -46 -790 -46 -833 0 -32 3 -35 29 -35 35 0 41
22 41 146 l0 84 30 0 30 0 0 -69 c0 -37 3 -89 6 -115 6 -43 9 -46 35 -46 27 0
29 3 29 40 0 50 -38 739 -46 838 l-6 72 -48 0 -48 0 -6 -82z m78 -470 l6 -118
-31 0 -31 0 6 53 c3 28 8 151 12 272 4 121 9 225 13 230 3 6 9 -64 12 -155 4
-91 10 -218 13 -282z"/>
<path d="M1350 1975 l0 -475 30 0 30 0 0 475 0 475 -30 0 -30 0 0 -475z"/>
<path d="M1620 1976 l0 -476 25 0 25 0 1 333 1 332 43 -330 c24 -181 44 -331
44 -332 1 -2 15 -3 31 -3 l30 0 0 476 0 475 -22 -3 -23 -3 -4 -325 -3 -325
-42 325 -41 325 -33 3 -32 3 0 -475z"/>
<path d="M2000 2425 c0 -22 4 -25 35 -25 l35 0 0 -450 0 -450 35 0 35 0 0 450
0 450 36 0 c31 0 35 3 32 23 -3 21 -8 22 -105 25 l-103 3 0 -26z"/>
<path d="M2800 1975 l0 -478 81 5 c133 8 123 -26 127 446 2 218 0 412 -3 430
-8 45 -39 61 -128 68 l-77 7 0 -478z m121 415 c18 -10 19 -25 19 -413 0 -427
0 -427 -47 -427 l-23 0 0 425 c0 459 -2 443 51 415z"/>
<path d="M3200 1975 l0 -475 75 0 c73 0 75 1 75 25 0 23 -4 25 -40 25 l-40 0
0 215 0 215 35 0 c28 0 35 4 35 20 0 16 -7 20 -35 20 l-35 0 0 190 0 190 40 0
c36 0 40 3 40 25 0 24 -2 25 -75 25 l-75 0 0 -475z"/>
<path d="M3530 1976 l0 -476 25 0 25 0 1 333 1 332 43 -330 c24 -181 44 -331
44 -332 1 -2 15 -3 31 -3 l30 0 0 476 0 475 -22 -3 -23 -3 -4 -325 -3 -325
-42 325 -41 325 -33 3 -32 3 0 -475z"/>
<path d="M3940 1975 l0 -475 30 0 30 0 0 475 0 475 -30 0 -30 0 0 -475z"/>
<path d="M4215 2425 c-24 -23 -25 -30 -25 -147 0 -145 8 -181 62 -270 57 -97
69 -144 75 -303 5 -124 4 -143 -11 -158 -20 -19 -25 -20 -46 -7 -12 7 -16 42
-18 185 l-3 175 -30 0 -29 0 0 -176 c0 -106 4 -183 11 -196 28 -51 132 -58
169 -11 18 23 20 41 20 193 0 188 -5 209 -69 317 -53 86 -61 116 -68 240 -6
111 1 133 42 133 13 0 26 -7 29 -16 3 -9 6 -72 6 -140 l0 -124 30 0 30 0 0
140 c0 136 -1 142 -25 165 -19 20 -34 25 -75 25 -41 0 -56 -5 -75 -25z"/>
<path d="M2360 1920 l0 -30 130 0 130 0 0 30 0 30 -130 0 -130 0 0 -30z"/>
<path d="M2850 1270 c-19 -19 -20 -33 -20 -324 0 -292 1 -304 21 -330 26 -33
79 -36 109 -6 19 19 20 33 20 334 0 314 0 315 -22 330 -31 22 -84 20 -108 -4z
m80 -330 c0 -252 -2 -309 -14 -313 -33 -13 -36 14 -36 319 0 233 3 303 13 307
36 12 37 2 37 -313z"/>
<path d="M2047 963 c-22 -397 -22 -365 6 -361 20 3 22 9 25 86 2 72 5 82 22
82 16 0 19 -11 25 -85 7 -79 9 -85 30 -85 20 0 22 4 18 48 -5 65 -33 584 -33
611 0 18 -6 21 -38 21 l-38 0 -17 -317z m68 40 c7 -202 7 -203 -14 -203 -21 0
-21 3 -16 143 6 151 15 271 20 265 1 -2 6 -94 10 -205z"/>
<path d="M2300 940 l0 -340 61 0 c52 0 60 2 57 18 -2 11 -14 18 -36 20 l-32 3
0 150 0 149 25 0 c18 0 25 5 25 20 0 15 -7 20 -25 20 l-25 0 0 135 0 135 35 0
c24 0 35 5 35 15 0 12 -13 15 -60 15 l-60 0 0 -340z"/>
<path d="M2540 940 l0 -340 25 0 25 0 0 170 0 170 25 0 25 0 0 -170 0 -170 25
0 25 0 0 161 c0 88 -5 169 -10 179 -7 13 -7 21 0 25 6 4 10 63 10 145 0 166
-2 170 -91 170 l-59 0 0 -340z m95 170 c0 -132 0 -135 -22 -138 -23 -3 -23 -3
-23 138 0 141 0 141 23 138 22 -3 22 -6 22 -138z"/>
</g>
</svg>
